<svg xmlns="http://www.w3.org/2000/svg" xmlns:xlink="http://www.w3.org/1999/xlink" width="528" zoomAndPan="magnify" viewBox="0 0 396 611.999999" height="816" preserveAspectRatio="xMidYMid meet" version="1.0"><defs><clipPath id="id1"><path d="M 80.160156 281.796875 L 117.660156 281.796875 L 117.660156 330.546875 L 80.160156 330.546875 Z M 80.160156 281.796875 " clip-rule="nonzero"/></clipPath><clipPath id="id2"><path d="M 117.558594 281.796875 L 161.808594 281.796875 L 161.808594 330.546875 L 117.558594 330.546875 Z M 117.558594 281.796875 " clip-rule="nonzero"/></clipPath><clipPath id="id3"><path d="M 161.792969 281.796875 L 201.542969 281.796875 L 201.542969 330.546875 L 161.792969 330.546875 Z M 161.792969 281.796875 " clip-rule="nonzero"/></clipPath><clipPath id="id4"><path d="M 201.429688 281.796875 L 239.679688 281.796875 L 239.679688 330.546875 L 201.429688 330.546875 Z M 201.429688 281.796875 " clip-rule="nonzero"/></clipPath><clipPath id="id5"><path d="M 278.882812 281.796875 L 317.132812 281.796875 L 317.132812 330.546875 L 278.882812 330.546875 Z M 278.882812 281.796875 " clip-rule="nonzero"/></clipPath><clipPath id="id6"><path d="M 316.765625 281.796875 L 356.515625 281.796875 L 356.515625 330.546875 L 316.765625 330.546875 Z M 316.765625 281.796875 " clip-rule="nonzero"/></clipPath><clipPath id="id7"><path d="M 39.601562 281.796875 L 77.851562 281.796875 L 77.851562 330.546875 L 39.601562 330.546875 Z M 39.601562 281.796875 " clip-rule="nonzero"/></clipPath><clipPath id="id8"><path d="M 231.132812 281.796875 L 279 281.796875 L 279 330.546875 L 231.132812 330.546875 Z M 231.132812 281.796875 " clip-rule="nonzero"/></clipPath></defs><g clip-path="url(#id1)"><path fill="rgb(0%, 0%, 0%)" d="M 100.515625 281.824219 L 81.265625 281.824219 C 80.65625 281.824219 80.160156 282.320312 80.160156 282.933594 L 80.160156 329.433594 C 80.160156 330.046875 80.65625 330.542969 81.265625 330.542969 L 88.984375 330.542969 C 89.59375 330.542969 90.085938 330.046875 90.085938 329.433594 L 90.085938 315.03125 L 100.152344 315.03125 C 110.460938 315.03125 117.660156 308.140625 117.660156 298.277344 C 117.660156 288.4375 110.769531 281.824219 100.515625 281.824219 Z M 98.3125 307.277344 L 90.085938 307.277344 L 90.085938 289.550781 L 98.347656 289.550781 C 104.347656 289.550781 107.734375 292.671875 107.734375 298.480469 C 107.734375 304.128906 104.25 307.277344 98.3125 307.277344 Z M 98.3125 307.277344 " fill-opacity="1" fill-rule="nonzero"/></g><g clip-path="url(#id2)"><path fill="rgb(0%, 0%, 0%)" d="M 139.730469 281.796875 C 126.269531 281.796875 117.574219 291.355469 117.574219 306.152344 C 117.574219 321.199219 126.0625 330.546875 139.730469 330.546875 C 153.335938 330.546875 161.789062 321.199219 161.789062 306.152344 C 161.789062 291.128906 153.335938 281.796875 139.730469 281.796875 Z M 139.726562 322.066406 C 131.851562 322.066406 127.050781 315.839844 127.050781 306.15625 C 127.050781 296.441406 131.96875 290.273438 139.726562 290.273438 C 147.457031 290.273438 152.316406 296.441406 152.316406 306.15625 C 152.316406 315.839844 147.484375 322.066406 139.726562 322.066406 Z M 139.726562 322.066406 " fill-opacity="1" fill-rule="nonzero"/></g><g clip-path="url(#id3)"><path fill="rgb(0%, 0%, 0%)" d="M 200.421875 281.796875 L 192.699219 281.796875 C 192.089844 281.796875 191.597656 282.292969 191.597656 282.902344 L 191.597656 312.816406 L 191.410156 312.816406 L 170.890625 282.261719 C 170.683594 281.96875 170.289062 281.796875 169.929688 281.796875 L 162.914062 281.796875 C 162.300781 281.796875 161.808594 282.292969 161.808594 282.902344 L 161.808594 329.4375 C 161.808594 330.046875 162.300781 330.546875 162.914062 330.546875 L 170.636719 330.546875 C 171.246094 330.546875 171.738281 330.046875 171.738281 329.4375 L 171.738281 299.523438 L 171.925781 299.523438 L 192.445312 330.078125 C 192.652344 330.371094 193.078125 330.546875 193.433594 330.546875 L 200.421875 330.546875 C 201.03125 330.546875 201.523438 330.046875 201.523438 329.4375 L 201.523438 282.902344 C 201.523438 282.292969 201.03125 281.796875 200.421875 281.796875 Z M 200.421875 281.796875 " fill-opacity="1" fill-rule="nonzero"/></g><g clip-path="url(#id4)"><path fill="rgb(0%, 0%, 0%)" d="M 224.375 330.546875 L 216.734375 330.546875 C 216.128906 330.546875 215.640625 330.046875 215.640625 329.4375 L 215.640625 289.550781 L 202.542969 289.550781 C 201.9375 289.550781 201.449219 289.054688 201.449219 288.441406 L 201.449219 282.902344 C 201.449219 282.292969 201.9375 281.796875 202.542969 281.796875 L 238.566406 281.796875 C 239.167969 281.796875 239.65625 282.292969 239.65625 282.902344 L 239.65625 288.441406 C 239.65625 289.054688 239.167969 289.550781 238.566406 289.550781 L 225.464844 289.550781 L 225.464844 329.4375 C 225.464844 330.046875 224.976562 330.546875 224.375 330.546875 Z M 224.375 330.546875 " fill-opacity="1" fill-rule="nonzero"/></g><g clip-path="url(#id5)"><path fill="rgb(0%, 0%, 0%)" d="M 302.753906 302.890625 L 297.441406 301.722656 C 291.710938 300.460938 289.507812 298.558594 289.507812 295.574219 C 289.507812 291.789062 292.429688 289.214844 298.007812 289.214844 C 302.65625 289.214844 305.699219 291.367188 306.78125 294.46875 C 306.863281 294.695312 306.9375 294.925781 306.988281 295.167969 C 307.039062 295.390625 307.078125 295.59375 307.109375 295.769531 C 307.199219 296.273438 307.640625 296.632812 308.152344 296.632812 L 315.007812 296.632812 C 315.304688 296.632812 315.585938 296.511719 315.785156 296.292969 C 315.984375 296.078125 316.089844 295.789062 316.066406 295.496094 C 315.480469 287.300781 308.316406 281.796875 298.242188 281.796875 C 287.296875 281.796875 279.945312 287.617188 279.945312 296.273438 C 279.945312 302.890625 284.988281 306.894531 293.375 308.710938 L 299.359375 310.03125 C 305.285156 311.355469 307.570312 313.234375 307.570312 316.433594 C 307.570312 320.160156 303.875 323.125 298.433594 323.125 C 293.433594 323.125 289.726562 321.035156 288.425781 317.972656 C 288.210938 317.425781 288.058594 316.917969 287.960938 316.519531 C 287.839844 316.042969 287.417969 315.707031 286.925781 315.707031 L 279.945312 315.707031 C 279.648438 315.707031 279.363281 315.832031 279.164062 316.050781 C 278.964844 316.269531 278.863281 316.558594 278.886719 316.855469 C 279.585938 325.171875 287.058594 330.542969 297.921875 330.542969 C 309.769531 330.542969 317.132812 324.859375 317.132812 315.707031 C 317.132812 308.9375 312.132812 304.921875 302.753906 302.890625 Z M 302.753906 302.890625 " fill-opacity="1" fill-rule="nonzero"/></g><g clip-path="url(#id6)"><path fill="rgb(0%, 0%, 0%)" d="M 356.195312 328.742188 L 337.722656 303.152344 L 355.011719 283.683594 C 355.300781 283.359375 355.375 282.894531 355.195312 282.496094 C 355.019531 282.097656 354.625 281.839844 354.191406 281.839844 L 345.507812 281.839844 C 345.199219 281.839844 344.902344 281.972656 344.695312 282.203125 L 326.675781 302.070312 L 326.675781 282.949219 C 326.675781 282.335938 326.179688 281.839844 325.574219 281.839844 L 317.867188 281.839844 C 317.257812 281.839844 316.765625 282.335938 316.765625 282.949219 L 316.765625 329.390625 C 316.765625 330.003906 317.257812 330.5 317.867188 330.5 L 325.574219 330.5 C 326.179688 330.5 326.675781 330.003906 326.675781 329.390625 L 326.675781 315.59375 L 331.730469 309.898438 L 346.253906 330.039062 C 346.460938 330.328125 346.792969 330.5 347.144531 330.5 L 355.304688 330.5 C 355.71875 330.5 356.097656 330.265625 356.285156 329.894531 C 356.472656 329.523438 356.4375 329.078125 356.195312 328.742188 Z M 356.195312 328.742188 " fill-opacity="1" fill-rule="nonzero"/></g><g clip-path="url(#id7)"><path fill="rgb(0%, 0%, 0%)" d="M 63.46875 302.890625 L 58.15625 301.722656 C 52.425781 300.460938 50.226562 298.558594 50.226562 295.574219 C 50.226562 291.789062 53.148438 289.214844 58.726562 289.214844 C 63.375 289.214844 66.414062 291.367188 67.5 294.46875 C 67.578125 294.695312 67.652344 294.925781 67.707031 295.167969 C 67.753906 295.390625 67.792969 295.59375 67.824219 295.769531 C 67.914062 296.273438 68.355469 296.632812 68.867188 296.632812 L 75.726562 296.632812 C 76.019531 296.632812 76.300781 296.511719 76.5 296.292969 C 76.703125 296.078125 76.804688 295.789062 76.785156 295.496094 C 76.195312 287.300781 69.03125 281.796875 58.957031 281.796875 C 48.015625 281.796875 40.664062 287.617188 40.664062 296.273438 C 40.664062 302.890625 45.703125 306.894531 54.089844 308.710938 L 60.078125 310.03125 C 66 311.355469 68.289062 313.234375 68.289062 316.433594 C 68.289062 320.160156 64.589844 323.125 59.148438 323.125 C 54.152344 323.125 50.441406 321.035156 49.144531 317.972656 C 48.925781 317.425781 48.777344 316.917969 48.675781 316.519531 C 48.554688 316.042969 48.132812 315.707031 47.640625 315.707031 L 40.664062 315.707031 C 40.367188 315.707031 40.082031 315.832031 39.878906 316.050781 C 39.679688 316.269531 39.578125 316.558594 39.605469 316.855469 C 40.304688 325.171875 47.773438 330.542969 58.636719 330.542969 C 70.488281 330.542969 77.851562 324.859375 77.851562 315.707031 C 77.851562 308.9375 72.851562 304.921875 63.46875 302.890625 Z M 63.46875 302.890625 " fill-opacity="1" fill-rule="nonzero"/></g><g clip-path="url(#id8)"><path fill="rgb(0%, 0%, 0%)" d="M 277.253906 328.523438 C 277.039062 328.835938 276.699219 329.015625 276.320312 329.015625 L 267.675781 329.015625 C 267.207031 329.015625 266.78125 328.71875 266.617188 328.277344 L 264.414062 322.375 C 264.40625 322.355469 264.398438 322.335938 264.390625 322.316406 C 263.992188 321.3125 263.007812 320.644531 261.925781 320.644531 L 248.042969 320.644531 C 246.933594 320.644531 245.929688 321.34375 245.546875 322.390625 L 243.398438 328.273438 C 243.234375 328.714844 242.808594 329.015625 242.335938 329.015625 L 233.941406 329.015625 C 233.5625 329.015625 233.222656 328.835938 233.007812 328.523438 C 232.792969 328.210938 232.75 327.828125 232.886719 327.472656 L 243.484375 300.042969 C 243.75 299.355469 244.378906 299.3125 244.5625 299.316406 C 244.75 299.320312 245.375 299.386719 245.613281 300.085938 L 247.15625 304.644531 L 249.050781 310.25 C 249.417969 311.332031 250.429688 312.058594 251.570312 312.058594 L 257.121094 312.058594 C 257.988281 312.058594 258.800781 311.636719 259.296875 310.929688 C 259.792969 310.222656 259.917969 309.3125 259.625 308.496094 L 255.761719 297.707031 C 255.746094 297.660156 255.726562 297.617188 255.703125 297.578125 L 251.132812 284.839844 C 251.007812 284.488281 251.058594 284.113281 251.273438 283.804688 C 251.488281 283.5 251.824219 283.324219 252.199219 283.324219 L 259.554688 283.324219 C 260.019531 283.324219 260.445312 283.613281 260.609375 284.050781 L 260.976562 285 L 277.375 327.472656 C 277.511719 327.828125 277.46875 328.210938 277.253906 328.523438 Z M 278.800781 326.921875 L 262.613281 285 L 262.035156 283.496094 C 261.839844 282.996094 261.503906 282.566406 261.058594 282.261719 C 260.613281 281.957031 260.09375 281.796875 259.554688 281.796875 L 252.199219 281.796875 C 251.332031 281.796875 250.519531 282.21875 250.023438 282.925781 C 249.527344 283.636719 249.40625 284.542969 249.695312 285.359375 L 254.320312 298.242188 C 254.335938 298.285156 254.355469 298.328125 254.378906 298.367188 L 258.1875 309.011719 C 258.316406 309.367188 258.265625 309.742188 258.050781 310.046875 C 257.835938 310.355469 257.496094 310.53125 257.121094 310.53125 L 251.570312 310.53125 C 251.085938 310.53125 250.652344 310.222656 250.496094 309.761719 L 248.015625 302.421875 L 247.058594 299.597656 C 246.695312 298.523438 245.726562 297.8125 244.597656 297.789062 C 243.464844 297.765625 242.46875 298.433594 242.0625 299.488281 L 231.464844 326.921875 C 231.148438 327.742188 231.253906 328.664062 231.75 329.386719 C 232.246094 330.113281 233.066406 330.542969 233.941406 330.542969 L 242.335938 330.542969 C 243.445312 330.542969 244.449219 329.84375 244.832031 328.796875 L 246.980469 322.914062 C 247.144531 322.46875 247.570312 322.171875 248.042969 322.171875 L 261.925781 322.171875 C 262.121094 322.171875 262.3125 322.222656 262.476562 322.316406 C 262.707031 322.445312 262.890625 322.652344 262.984375 322.910156 L 265.1875 328.8125 C 265.570312 329.847656 266.570312 330.542969 267.675781 330.542969 L 276.320312 330.542969 C 277.199219 330.542969 278.015625 330.113281 278.511719 329.386719 C 279.007812 328.664062 279.117188 327.742188 278.800781 326.921875 " fill-opacity="1" fill-rule="nonzero"/></g></svg>